<?xml version="1.0" standalone="no"?>
<!DOCTYPE svg PUBLIC "-//W3C//DTD SVG 20010904//EN"
 "http://www.w3.org/TR/2001/REC-SVG-20010904/DTD/svg10.dtd">
<svg version="1.0" xmlns="http://www.w3.org/2000/svg"
 width="700.000000pt" height="700.000000pt" viewBox="0 0 700.000000 700.000000"
 preserveAspectRatio="xMidYMid meet">
<metadata>
Created by potrace 1.14, written by Peter Selinger 2001-2017
</metadata>
<g transform="translate(0.000000,700.000000) scale(0.100000,-0.100000)"
fill="#000000" stroke="none">
<path d="M3869 5894 c-113 -33 -180 -177 -134 -287 42 -101 103 -132 275 -141
247 -14 402 -48 617 -138 567 -236 967 -770 1047 -1395 9 -70 18 -96 48 -141
35 -50 75 -72 186 -101 263 -68 468 -238 581 -483 62 -132 76 -201 75 -368 0
-122 -3 -158 -23 -225 -80 -278 -282 -497 -546 -593 -141 -51 -133 -51 -1140
-52 -567 0 -954 -4 -974 -10 -164 -47 -215 -250 -93 -368 63 -61 -5 -57 1042
-58 1016 -2 1052 -1 1215 47 492 143 859 554 940 1054 18 113 14 345 -10 472
-9 50 -67 227 -92 281 -27 58 -130 233 -142 242 -4 3 -17 19 -29 35 -40 52
-165 176 -217 213 -27 20 -52 39 -55 43 -13 17 -192 112 -266 141 -82 32 -83
33 -89 73 -19 118 -84 326 -146 465 -292 658 -891 1135 -1588 1266 -47 9 -94
18 -104 20 -99 19 -324 23 -378 8z"/>
<path d="M2997 5677 c-52 -17 -103 -60 -129 -110 l-23 -42 0 -1920 0 -1920 27
-42 c99 -152 306 -146 384 12 l26 54 0 1899 c0 1862 0 1901 -20 1943 -47 105
-160 159 -265 126z"/>
<path d="M2105 4796 c-49 -21 -91 -63 -114 -111 l-21 -45 0 -1463 c0 -1094 3
-1473 12 -1498 49 -142 226 -193 342 -97 20 16 46 49 59 71 l22 42 1 1450 c1
866 -2 1468 -8 1495 -21 101 -107 170 -210 170 -29 -1 -66 -7 -83 -14z"/>
<path d="M1273 4589 c-67 -12 -115 -48 -155 -116 l-22 -38 -1 -1364 -1 -1363
22 -47 c61 -133 233 -171 339 -74 12 10 32 34 45 53 l25 35 3 1365 c2 966 0
1376 -8 1403 -28 98 -141 165 -247 146z"/>
<path d="M367 3925 c-35 -12 -54 -24 -95 -62 -7 -7 -22 -33 -33 -58 -19 -44
-20 -66 -20 -735 0 -433 4 -704 10 -728 41 -150 244 -202 359 -91 70 67 68 43
68 824 -1 663 -2 702 -20 735 -54 102 -167 151 -269 115z"/>
</g>
</svg>
