<?xml version="1.0" standalone="no"?>
<!DOCTYPE svg PUBLIC "-//W3C//DTD SVG 20010904//EN"
 "http://www.w3.org/TR/2001/REC-SVG-20010904/DTD/svg10.dtd">
<svg version="1.0" xmlns="http://www.w3.org/2000/svg"
 width="512.000000pt" height="512.000000pt" viewBox="0 0 512.000000 512.000000"
 preserveAspectRatio="xMidYMid meet">
<metadata>
Created by potrace 1.14, written by Peter Selinger 2001-2017
</metadata>
<g transform="translate(0.000000,512.000000) scale(0.100000,-0.100000)"
fill="#000000" stroke="none">
<path d="M0 2560 l0 -2560 2560 0 2560 0 0 2560 0 2560 -2560 0 -2560 0 0
-2560z m3020 1116 c267 -70 485 -215 649 -432 70 -92 155 -267 188 -386 l27
-96 91 -46 c164 -81 287 -220 349 -395 29 -80 31 -96 31 -221 0 -125 -2 -141
-31 -221 -79 -222 -264 -391 -490 -449 -72 -19 -113 -20 -612 -20 l-534 0 -34
34 -34 34 0 1082 0 1082 35 35 36 36 117 -6 c77 -4 150 -14 212 -31z m-689
-99 c18 -12 39 -34 46 -47 10 -20 13 -245 13 -1023 0 -904 -2 -1002 -16 -1033
-28 -59 -102 -81 -164 -49 -64 33 -61 -26 -58 1089 l3 1014 25 27 c46 50 98
58 151 22z m-478 -451 c71 -29 67 23 67 -857 l0 -791 -34 -34 c-29 -29 -41
-34 -81 -34 -40 0 -52 5 -81 34 l-34 34 0 791 c0 877 -4 827 65 857 39 17 58
17 98 0z m-453 -121 c62 -32 60 -4 60 -790 0 -786 2 -758 -60 -790 -62 -32
-141 -9 -166 50 -22 53 -21 1443 1 1485 29 55 105 76 165 45z m-470 -340 c61
-32 60 -22 60 -453 l0 -394 -29 -28 c-16 -16 -41 -32 -56 -36 -43 -11 -103 13
-125 49 -19 30 -20 53 -20 410 0 418 1 425 63 452 42 18 71 18 107 0z"/>
</g>
</svg>
