<?xml version="1.0" standalone="no"?>
<!DOCTYPE svg PUBLIC "-//W3C//DTD SVG 20010904//EN"
 "http://www.w3.org/TR/2001/REC-SVG-20010904/DTD/svg10.dtd">
<svg version="1.0" xmlns="http://www.w3.org/2000/svg"
 width="700.000000pt" height="700.000000pt" viewBox="0 0 700.000000 700.000000"
 preserveAspectRatio="xMidYMid meet">
<metadata>
Created by potrace 1.14, written by Peter Selinger 2001-2017
</metadata>
<g transform="translate(0.000000,700.000000) scale(0.100000,-0.100000)"
fill="#000000" stroke="none">
<path d="M2657 5622 c-548 -339 -996 -620 -995 -624 2 -4 156 -108 343 -232
306 -202 342 -223 360 -212 11 7 307 185 658 395 l637 382 0 455 c0 249 -1
454 -2 453 -2 0 -452 -278 -1001 -617z"/>
<path d="M3828 4903 c-757 -471 -975 -610 -965 -619 10 -10 606 -430 636 -448
7 -4 291 171 666 410 l655 417 0 424 c0 232 -3 423 -7 423 -5 0 -448 -273
-985 -607z"/>
<path d="M920 2949 l1 -1804 312 -191 312 -191 5 1431 5 1431 950 -583 c523
-321 959 -588 971 -594 18 -8 155 72 996 584 l976 595 6 -256 c3 -141 11 -773
17 -1406 7 -632 13 -1151 14 -1153 1 -1 136 84 299 190 l296 192 0 1779 0
1779 -22 -14 c-13 -8 -593 -358 -1290 -777 l-1268 -762 -1267 762 c-698 420
-1278 769 -1290 777 l-23 14 0 -1803z"/>
</g>
</svg>
