<?xml version="1.0" standalone="no"?>
<!DOCTYPE svg PUBLIC "-//W3C//DTD SVG 20010904//EN"
 "http://www.w3.org/TR/2001/REC-SVG-20010904/DTD/svg10.dtd">
<svg version="1.0" xmlns="http://www.w3.org/2000/svg"
 width="700.000000pt" height="700.000000pt" viewBox="0 0 700.000000 700.000000"
 preserveAspectRatio="xMidYMid meet">
<metadata>
Created by potrace 1.14, written by Peter Selinger 2001-2017
</metadata>
<g transform="translate(0.000000,700.000000) scale(0.100000,-0.100000)"
fill="#000000" stroke="none">
<path d="M0 3500 l0 -3500 3500 0 3500 0 0 3500 0 3500 -3500 0 -3500 0 0
-3500z m3648 1824 c-22 -19 -1291 -777 -1302 -777 -17 0 -687 445 -684 454 2
4 451 285 998 622 l995 615 3 -451 c2 -353 -1 -454 -10 -463z m1172 -233 l0
-429 -646 -412 c-355 -226 -651 -413 -658 -416 -15 -6 -662 449 -656 461 3 8
1943 1220 1958 1224 1 1 2 -192 2 -428z m-2601 -1121 l1282 -771 1288 776
c709 426 1291 775 1295 775 3 0 5 -800 4 -1777 l-3 -1777 -299 -193 c-164
-107 -299 -193 -301 -191 -1 2 -10 632 -18 1402 -9 769 -18 1401 -21 1403 -3
3 -442 -261 -976 -587 -534 -325 -977 -589 -984 -587 -6 3 -439 267 -961 587
-523 320 -956 585 -962 587 -10 4 -13 -288 -15 -1425 l-3 -1430 -317 195 -318
196 0 1799 c0 1522 2 1799 14 1795 7 -3 590 -352 1295 -777z"/>
</g>
</svg>
